<svg width="64" height="57" viewBox="0 0 64 57" fill="none" xmlns="http://www.w3.org/2000/svg">
<path d="M50.496 25.248C50.496 22.2214 48.3499 19.6903 45.5064 19.0812C46.6425 17.1844 47.34 14.991 47.34 12.624C47.34 5.66186 41.6781 0 34.716 0C29.9315 0 25.8098 2.70469 23.67 6.64022C21.5302 2.70469 17.4085 0 12.624 0C5.66186 0 0 5.66186 0 12.624C0 15.4707 0.984672 18.0713 2.57845 20.1858C1.02254 21.3377 0 23.1682 0 25.248V50.496C0 53.9771 2.83093 56.808 6.312 56.808H44.184C47.6651 56.808 50.496 53.9771 50.496 50.496V42.1736L63.12 48.4856V26.3936L50.496 32.7056V25.248ZM34.716 6.312C38.1971 6.312 41.028 9.14293 41.028 12.624C41.028 16.1051 38.1971 18.936 34.716 18.936C31.2349 18.936 28.404 16.1051 28.404 12.624C28.404 9.14293 31.2349 6.312 34.716 6.312ZM12.624 6.312C16.1051 6.312 18.936 9.14293 18.936 12.624C18.936 16.1051 16.1051 18.936 12.624 18.936C9.14293 18.936 6.312 16.1051 6.312 12.624C6.312 9.14293 9.14293 6.312 12.624 6.312Z" fill="#FF0000"/>
</svg>
