<?xml version="1.0" encoding="iso-8859-1"?>
<!-- Generator: Adobe Illustrator 19.0.0, SVG Export Plug-In . SVG Version: 6.00 Build 0)  -->
<svg version="1.1" id="Layer_1" xmlns="http://www.w3.org/2000/svg" xmlns:xlink="http://www.w3.org/1999/xlink" x="0px" y="0px"
	 viewBox="0 0 512 512" style="enable-background:new 0 0 512 512;" xml:space="preserve">
<path style="fill:#D50707;" d="M341.992,130.319c9.727,6.12,22.545,5.897,30.391-2.504l37.128-39.61
	c7.846-8.4,6.319-20.3-3.395-26.445l-0.493-0.45c-41.424-31.888-93.304-50.86-149.624-50.86
	c-94.045,0-175.701,52.892-216.948,130.529l74.936,60.015c22.084-56.952,77.261-97.403,142.012-97.403
	c31.635,0,60.944,9.722,85.271,26.254L341.992,130.319z"/>
<path style="fill:#FFD41D;" d="M103.591,256c0-19.423,3.772-37.927,10.398-55.009l-74.937-60.014
	C20.821,175.295,10.45,214.43,10.45,256.001c0,41.764,10.457,81.076,28.846,115.506l74.492-61.045
	C107.298,293.524,103.591,275.216,103.591,256z"/>
<path style="fill:#1EB615;" d="M340.735,382.582c-24.241,16.262-53.346,25.834-84.731,25.834
	c-64.963,0-120.28-40.713-142.218-97.957l-74.493,61.044c41.332,77.378,122.855,130.048,216.703,130.048
	c60.95,0,116.667-22.254,159.595-59.016L340.735,382.582z"/>
<path style="fill:#0084FF;" d="M500.659,235.085c-1.514-11.394-12.157-20.716-23.651-20.716H286.776
	c-11.494,0-20.898,9.404-20.898,20.898v44.992c0,11.494,9.404,20.898,20.898,20.898h93.931c10.822,0,18.16,7.401,14.568,16.784
	c-11.76,26.351-30.808,48.716-54.542,64.641l74.86,59.953c52.59-45.039,85.956-111.87,85.956-186.535
	C501.55,241.793,500.659,235.085,500.659,235.085z"/>
<path d="M324.438,242.659h-4.678c-5.771,0-10.449,4.678-10.449,10.449c0,5.771,4.678,10.449,10.449,10.449h4.678
	c5.771,0,10.449-4.678,10.449-10.449C334.887,247.338,330.209,242.659,324.438,242.659z"/>
<path d="M449.284,242.659h-91.043c-5.771,0-10.449,4.678-10.449,10.449c0,5.771,4.678,10.449,10.449,10.449h91.043
	c5.771,0,10.449-4.678,10.449-10.449C459.733,247.338,455.055,242.659,449.284,242.659z"/>
<path d="M511.017,233.709c-2.219-16.704-17.158-29.789-34.008-29.789H286.776c-17.285,0-31.347,14.062-31.347,31.347v44.992
	c0,17.285,14.062,31.347,31.347,31.347h93.931c3.253,0,4.855,1.164,5.035,1.552c0.015,0.067,0.011,0.353-0.154,0.848
	c-10.898,24.254-28.416,44.962-50.676,59.899c-0.001,0-0.002,0.001-0.003,0.002c-23.464,15.74-50.749,24.059-78.905,24.059
	c-58.308,0-111.537-36.663-132.455-91.234c-0.001-0.002-0.001-0.004-0.002-0.007c-6.308-16.464-9.506-33.531-9.506-50.725
	c0-17.415,3.26-34.651,9.69-51.229c0.003-0.008,0.005-0.017,0.008-0.025c21.378-55.104,73.29-90.708,132.26-90.708
	c28.409,0,55.864,8.453,79.399,24.447c0.041,0.027,0.081,0.055,0.122,0.083l0.721,0.475c0.062,0.04,0.123,0.08,0.186,0.119
	c6.078,3.825,12.97,5.847,19.929,5.847c0.001,0,0,0,0,0c9.198,0,17.601-3.574,23.649-10.048l37.141-39.624
	c5.871-6.285,8.647-14.498,7.615-22.531c-0.992-7.719-5.425-14.71-12.218-19.324c-0.177-0.157-0.359-0.307-0.547-0.451
	C366.931,18.338,312.987,0,255.999,0C161.081,0,74.417,52.14,29.823,136.075c-0.006,0.011-0.01,0.023-0.017,0.034
	C10.308,172.826,0.001,214.283,0.001,256.002c0,41.938,10.399,83.575,30.071,120.415c0.001,0.002,0.002,0.005,0.004,0.008
	C74.746,460.051,161.313,512,255.997,512c60.952,0,120.03-21.84,166.356-61.5c0.013-0.01,0.025-0.019,0.038-0.029
	c56.948-48.771,89.608-119.653,89.608-194.471C511.999,241.271,511.057,234.011,511.017,233.709z M255.999,20.898
	c52.192,0,101.595,16.742,142.907,48.428c0,0,1.137,0.892,1.625,1.264c2.147,1.638,3.264,3.01,3.505,4.878
	c0.239,1.867-0.528,3.858-2.147,5.592l-37.141,39.624c-2.647,2.834-6.023,3.428-8.389,3.428c-2.941,0-6.033-0.917-8.717-2.584
	l-0.559-0.369c-26.998-18.33-58.493-28.018-91.082-28.018c-33.484,0-65.641,10.107-92.993,29.23
	c-22.822,15.956-40.985,37.189-53.117,61.953l-57.426-45.991C94.504,65.672,171.708,20.898,255.999,20.898z M42.656,157.251
	l58.966,47.224c-5.63,16.755-8.479,34.051-8.479,51.525c0,17.271,2.799,34.405,8.329,51.04l-58.662,48.071
	c-14.355-30.883-21.91-64.881-21.91-99.109C20.899,221.924,28.402,188.047,42.656,157.251z M255.997,491.102
	c-84.1,0-161.232-44.636-203.325-117.055l57.042-46.744c12.082,24.829,30.216,46.129,53.042,62.152
	c27.407,19.24,59.651,29.41,93.248,29.41c29.745,0,58.637-8.084,84.036-23.452l58.901,47.174
	C358.027,473.955,307.745,491.102,255.997,491.102z M415.23,428.857l-57.359-45.938c20.26-16.25,36.362-37.002,46.947-60.72
	c0.077-0.172,0.149-0.347,0.216-0.523c2.711-7.082,1.95-14.512-2.09-20.383c-4.56-6.629-12.873-10.586-22.238-10.586h-93.931
	c-5.762,0-10.449-4.687-10.449-10.449v-44.992c0-5.762,4.687-10.449,10.449-10.449h190.232c6.257,0,12.469,5.442,13.29,11.618
	c0.007,0.063,0.802,6.434,0.802,19.564C491.101,321.832,463.545,384.336,415.23,428.857z"/>
<g>
</g>
<g>
</g>
<g>
</g>
<g>
</g>
<g>
</g>
<g>
</g>
<g>
</g>
<g>
</g>
<g>
</g>
<g>
</g>
<g>
</g>
<g>
</g>
<g>
</g>
<g>
</g>
<g>
</g>
</svg>
