<svg width="319" height="57" viewBox="0 0 319 57" fill="none" xmlns="http://www.w3.org/2000/svg">
<path d="M72.32 43V15H77.68L94.2 35.16H91.6V15H98V43H92.68L76.12 22.84H78.72V43H72.32ZM213.786 15H220.266V43H213.786V15ZM201.066 43H194.586V15H201.066V43ZM214.266 31.52H200.586V26.04H214.266V31.52Z" fill="#FF0000"/>
<path d="M110.585 26.28H124.065V31.32H110.585V26.28ZM111.065 37.8H126.305V43H104.625V15H125.785V20.2H111.065V37.8ZM127.987 43L140.027 26.4V31.12L128.507 15H135.867L143.827 26.24L140.747 26.28L148.587 15H155.627L144.187 30.84V26.2L156.307 43H148.827L140.587 31.12H143.547L135.427 43H127.987ZM164.331 43V20.28H155.371V15H179.771V20.28H170.811V43H164.331ZM240.49 43.48C238.277 43.48 236.224 43.12 234.33 42.4C232.464 41.68 230.837 40.6667 229.45 39.36C228.09 38.0533 227.024 36.52 226.25 34.76C225.504 33 225.13 31.08 225.13 29C225.13 26.92 225.504 25 226.25 23.24C227.024 21.48 228.104 19.9467 229.49 18.64C230.877 17.3333 232.504 16.32 234.37 15.6C236.237 14.88 238.264 14.52 240.45 14.52C242.664 14.52 244.69 14.88 246.53 15.6C248.397 16.32 250.01 17.3333 251.37 18.64C252.757 19.9467 253.837 21.48 254.61 23.24C255.384 24.9733 255.77 26.8933 255.77 29C255.77 31.08 255.384 33.0133 254.61 34.8C253.837 36.56 252.757 38.0933 251.37 39.4C250.01 40.68 248.397 41.68 246.53 42.4C244.69 43.12 242.677 43.48 240.49 43.48ZM240.45 37.96C241.704 37.96 242.85 37.7467 243.89 37.32C244.957 36.8933 245.89 36.28 246.69 35.48C247.49 34.68 248.104 33.7333 248.53 32.64C248.984 31.5467 249.21 30.3333 249.21 29C249.21 27.6667 248.984 26.4533 248.53 25.36C248.104 24.2667 247.49 23.32 246.69 22.52C245.917 21.72 244.997 21.1067 243.93 20.68C242.864 20.2533 241.704 20.04 240.45 20.04C239.197 20.04 238.037 20.2533 236.97 20.68C235.93 21.1067 235.01 21.72 234.21 22.52C233.41 23.32 232.784 24.2667 232.33 25.36C231.904 26.4533 231.69 27.6667 231.69 29C231.69 30.3067 231.904 31.52 232.33 32.64C232.784 33.7333 233.397 34.68 234.17 35.48C234.97 36.28 235.904 36.8933 236.97 37.32C238.037 37.7467 239.197 37.96 240.45 37.96ZM273.08 43.48C269.107 43.48 266 42.3733 263.76 40.16C261.52 37.9467 260.4 34.7867 260.4 30.68V15H266.88V30.44C266.88 33.1067 267.427 35.0267 268.52 36.2C269.614 37.3733 271.147 37.96 273.12 37.96C275.094 37.96 276.627 37.3733 277.72 36.2C278.814 35.0267 279.36 33.1067 279.36 30.44V15H285.76V30.68C285.76 34.7867 284.64 37.9467 282.4 40.16C280.16 42.3733 277.054 43.48 273.08 43.48ZM292.164 43V15H304.284C306.79 15 308.95 15.4133 310.764 16.24C312.577 17.04 313.977 18.2 314.964 19.72C315.95 21.24 316.444 23.0533 316.444 25.16C316.444 27.24 315.95 29.04 314.964 30.56C313.977 32.0533 312.577 33.2 310.764 34C308.95 34.8 306.79 35.2 304.284 35.2H295.764L298.644 32.36V43H292.164ZM309.964 43L302.964 32.84H309.884L316.964 43H309.964ZM298.644 33.08L295.764 30.04H303.924C305.924 30.04 307.417 29.6133 308.404 28.76C309.39 27.88 309.884 26.68 309.884 25.16C309.884 23.6133 309.39 22.4133 308.404 21.56C307.417 20.7067 305.924 20.28 303.924 20.28H295.764L298.644 17.2V33.08Z" fill="black"/>
<path d="M50.496 25.248C50.496 22.2214 48.3499 19.6903 45.5064 19.0812C46.6425 17.1844 47.34 14.991 47.34 12.624C47.34 5.66186 41.6781 0 34.716 0C29.9315 0 25.8098 2.70469 23.67 6.64022C21.5302 2.70469 17.4085 0 12.624 0C5.66186 0 0 5.66186 0 12.624C0 15.4707 0.984672 18.0713 2.57845 20.1858C1.02254 21.3377 0 23.1682 0 25.248V50.496C0 53.9771 2.83093 56.808 6.312 56.808H44.184C47.6651 56.808 50.496 53.9771 50.496 50.496V42.1736L63.12 48.4856V26.3936L50.496 32.7056V25.248ZM34.716 6.312C38.1971 6.312 41.028 9.14293 41.028 12.624C41.028 16.1051 38.1971 18.936 34.716 18.936C31.2349 18.936 28.404 16.1051 28.404 12.624C28.404 9.14293 31.2349 6.312 34.716 6.312ZM12.624 6.312C16.1051 6.312 18.936 9.14293 18.936 12.624C18.936 16.1051 16.1051 18.936 12.624 18.936C9.14293 18.936 6.312 16.1051 6.312 12.624C6.312 9.14293 9.14293 6.312 12.624 6.312Z" fill="#FF0000"/>
</svg>
